Coordinates
version=1
nRows=11
nColumns=40
inDegrees=yes

Units are S.I. units (second, meters, Newtons, ...)
Angles are in degrees.

endheader
time	pelvis_tilt	pelvis_list	pelvis_rotation	pelvis_tx	pelvis_ty	pelvis_tz	hip_flexion_r	hip_adduction_r	hip_rotation_r	knee_angle_r	knee_angle_r_beta	ankle_angle_r	subtalar_angle_r	mtp_angle_r	hip_flexion_l	hip_adduction_l	hip_rotation_l	knee_angle_l	knee_angle_l_beta	ankle_angle_l	subtalar_angle_l	mtp_angle_l	lumbar_extension	lumbar_bending	lumbar_rotation	arm_flex_r	arm_add_r	arm_rot_r	elbow_flex_r	pro_sup_r	wrist_flex_r	wrist_dev_r	arm_flex_l	arm_add_l	arm_rot_l	elbow_flex_l	pro_sup_l	wrist_flex_l	wrist_dev_l
      2.71000000	    -27.96108779	     -0.02133954	     -9.79337797	     -1.23862178	      0.91575846	      0.23447239	     21.66795649	      5.71327554	      2.20505205	     14.24944541	     14.24944541	     11.13763159	      0.00000000	      0.00000000	     54.98722890	     -8.46409581	    -15.35809499	      3.72075879	      3.72075879	    -10.18096866	      0.00000000	      0.00000000	     26.21255363	      2.98165963	     10.36850826	     22.42242082	    -14.95229753	     28.28769185	     47.79841102	     58.71163126	      0.00000000	      0.00000000	    -33.71221512	     -9.92920356	     40.21191007	     10.67709793	     31.33475615	      0.00000000	      0.00000000
      2.72000000	    -27.86624057	      0.14049070	    -10.04110096	     -1.22824792	      0.91412681	      0.23435817	     21.10510017	      5.47768341	      2.47611167	     14.64474090	     14.64474090	     11.40483675	      0.00000000	      0.00000000	     54.84100668	     -8.51575406	    -14.85054063	      4.34359932	      4.34359932	    -10.20445695	      0.00000000	      0.00000000	     26.22355134	      2.82740773	     10.60508591	     21.94757906	    -14.82031429	     28.32228382	     47.50212970	     58.71800551	      0.00000000	      0.00000000	    -33.71915067	     -9.90268038	     40.28766260	     10.56748585	     31.17201192	      0.00000000	      0.00000000
      2.73000000	    -27.71130929	      0.29239934	    -10.30702033	     -1.21770912	      0.91256927	      0.23424965	     20.52783870	      5.24529111	      2.85913019	     15.17265643	     15.17265643	     11.78916803	      0.00000000	      0.00000000	     54.60234990	     -8.59453363	    -14.29955003	      5.22769856	      5.22769856	    -10.14046457	      0.00000000	      0.00000000	     26.16790006	      2.68619511	     10.81718932	     21.43395316	    -14.63110494	     28.29194745	     47.13803362	     58.72427765	      0.00000000	      0.00000000	    -33.62173684	     -9.87169805	     40.41343581	     10.43629637	     30.99385183	      0.00000000	      0.00000000
      2.74000000	    -27.52263205	      0.41580856	    -10.65993037	     -1.20707016	      0.91106942	      0.23425615	     19.97085615	      5.06791792	      3.32776175	     15.84414371	     15.84414371	     12.31694603	      0.00000000	      0.00000000	     54.31838052	     -8.77217480	    -13.93484817	      6.34243655	      6.34243655	     -9.85580689	      0.00000000	      0.00000000	     26.05887929	      2.59665040	     11.03730277	     20.85525323	    -14.32866198	     28.07684640	     46.69021809	     58.77677641	      0.00000000	      0.00000000	    -33.42366613	     -9.80019519	     40.75850612	     10.25578472	     30.66041722	      0.00000000	      0.00000000
      2.75000000	    -27.44213088	      0.63371947	    -10.90707964	     -1.19619299	      0.90970281	      0.23393337	     19.47202537	      4.73969058	      3.64353991	     16.32647631	     16.32647631	     12.34428335	      0.00000000	      0.00000000	     54.05882915	     -8.75860639	    -13.37110407	      7.35347326	      7.35347326	    -10.15986109	      0.00000000	      0.00000000	     26.13370203	      2.38536963	     11.31516233	     20.14408668	    -14.22059018	     28.15752909	     46.22470805	     58.79152376	      0.00000000	      0.00000000	    -33.16128919	     -9.86285445	     40.88104963	     10.23224566	     30.55732502	      0.00000000	      0.00000000
      2.76000000	    -27.39538395	      0.93894396	    -11.36508821	     -1.18563447	      0.90845747	      0.23373879	     19.26487025	      4.40631233	      4.26416698	     17.26988981	     17.26988981	     12.56737613	      0.00000000	      0.00000000	     53.87919723	     -8.87440516	    -13.42956320	      8.50616114	      8.50616114	    -10.36267202	      0.00000000	      0.00000000	     26.24060623	      2.26749476	     11.91944039	     19.19539668	    -13.89069988	     27.17889029	     45.58556894	     61.08479006	      0.00000000	      0.00000000	    -32.54407690	    -11.19168567	     52.30096638	     11.62656763	     18.79970809	      0.00000000	      0.00000000
      2.77000000	    -27.32660282	      1.12167220	    -11.51359198	     -1.17463124	      0.90742025	      0.23310441	     18.84898385	      4.07257513	      4.58303025	     17.88083972	     17.88083972	     12.43678631	      0.00000000	      0.00000000	     53.63766213	     -8.78342247	    -13.05176984	      9.46294250	      9.46294250	    -10.86038580	      0.00000000	      0.00000000	     26.31104738	      2.05563713	     12.03101667	     18.41061196	    -13.75053140	     27.31110917	     44.96584235	     61.00601674	      0.00000000	      0.00000000	    -32.07645880	    -11.23200509	     52.32483290	     11.62164573	     18.82636975	      0.00000000	      0.00000000
      2.78000000	    -27.26356893	      1.33197076	    -11.65568047	     -1.16378629	      0.90662672	      0.23234654	     18.59918744	      3.70712638	      4.89702689	     18.77440306	     18.77440306	     12.21098016	      0.00000000	      0.00000000	     53.43588145	     -8.67629243	    -12.97280439	     10.37493083	     10.37493083	    -11.47483918	      0.00000000	      0.00000000	     26.35856464	      1.81710495	     12.06767209	     17.64352703	    -13.50773556	     27.37905107	     44.20059647	     60.90448663	      0.00000000	      0.00000000	    -31.50206450	    -11.22667452	     52.39821041	     11.59346369	     18.88493825	      0.00000000	      0.00000000
      2.79000000	    -27.56125384	      1.94488480	    -12.08977672	     -1.15347335	      0.90574499	      0.23175769	     19.14410429	      3.10626166	      5.54633751	     20.21424187	     20.21424187	     12.01185610	      0.00000000	      0.00000000	     53.53109412	     -8.58011414	    -13.76193628	     11.00539532	     11.00539532	    -12.44112917	      0.00000000	      0.00000000	     26.90648441	      1.40961447	     12.47696301	     16.81599623	    -13.05366135	     27.28968372	     43.07479637	     60.68290359	      0.00000000	      0.00000000	    -30.86851634	    -11.24554010	     52.86338808	     11.46775751	     19.20107150	      0.00000000	      0.00000000
      2.80000000	    -27.48737677	      2.11848280	    -12.03125348	     -1.14248579	      0.90561883	      0.23061669	     18.97668701	      2.72515157	      5.78464772	     21.24500958	     21.24500958	     11.35247238	      0.00000000	      0.00000000	     53.30911786	     -8.34025797	    -13.67251977	     11.73420895	     11.73420895	    -13.05554755	      0.00000000	      0.00000000	     26.91295602	      1.10510877	     12.36125277	     15.90782491	    -12.89343412	     27.44946823	     42.24956477	     60.62059219	      0.00000000	      0.00000000	    -30.04353832	    -11.30387204	     52.90425039	     11.49707238	     19.26067766	      0.00000000	      0.00000000
      2.81000000	    -27.61329203	      2.56664167	    -12.10263318	     -1.13176850	      0.90562769	      0.22942421	     19.44411796	      2.11196620	      5.86329819	     22.89683223	     22.89683223	     10.53730861	      0.00000000	      0.00000000	     53.19398531	     -8.04446784	    -14.25001668	     12.22112053	     12.22112053	    -13.97073442	      0.00000000	      0.00000000	     27.23363429	      0.66841298	     12.31700818	     15.09597548	    -12.43765130	     27.55534714	     40.86045026	     60.50509752	      0.00000000	      0.00000000	    -29.19108164	    -11.27410317	     53.12193766	     11.38249894	     19.45812152	      0.00000000	      0.00000000
